<svg id="Capa_1" data-name="Capa 1" xmlns="http://www.w3.org/2000/svg" viewBox="0 0 40 40"><defs><style>.cls-1,.cls-4{fill:#fbe11a;}.cls-1{stroke:#ffb200;stroke-linecap:round;stroke-linejoin:round;stroke-width:1.27px;}.cls-2{fill:#e0a400;}.cls-3{fill:#fbb41a;}</style></defs><circle class="cls-1" cx="20" cy="20" r="18.82"/><path class="cls-2" d="M11.94,14.56a3.77,3.77,0,0,1,.94-2.32A5.72,5.72,0,0,1,16,10.45a6.83,6.83,0,0,1,1.8-.22,3.14,3.14,0,0,0,.75,0c.12,0,.29.06.35,0s0-.25,0-.38V8.16c0-.05,0-.12,0-.17s0,.13,0,.2v.1c0-.29,0-.29.29-.29s.87,0,1.3,0a.63.63,0,0,1,0,.24v2c0,.07,0,.14,0,.2a.2.2,0,0,0,.12.08,8.93,8.93,0,0,1,3.73,2l.09.06h0v-.89c0-.31,0-.62,0-.93,0-.1,0-.13.13-.13h2.21c.1,0,.14,0,.14.14s0,.51,0,.76c0,1.26,0,2.52,0,3.78,0,.16,0,.22-.21.22H24.72a.28.28,0,0,1-.26-.14,6.53,6.53,0,0,0-3.75-2.69c-.07,0-.12,0-.14.06a.1.1,0,0,0,0,0c0,1,0,2.06,0,3.08,0,.54,0,1.07,0,1.61,0,.05,0,.11,0,.15s.11.07.18.08a15,15,0,0,1,3.66,1,5.55,5.55,0,0,1,2,1.37,4.24,4.24,0,0,1,1,2.45,4.64,4.64,0,0,1-2.88,4.75A7.86,7.86,0,0,1,21,28h-.24c-.15-.06-.15.06-.18.15,0,.88,0,1.76,0,2.63,0,.09-.09.08-.15.08H19c-.07,0-.14,0-.11-.09,0-1,0-1.94,0-2.91,0-.13-.07-.14-.16-.16a10.11,10.11,0,0,1-2.6-1,13.19,13.19,0,0,1-1.62-1.05c-.06-.05-.12-.11-.14,0a.08.08,0,0,0,0,.08v1.62a.08.08,0,0,0,0,.08c0,.07,0,.12-.07.12H12s0,0,0,0,0-.08,0-.12V22.86a.26.26,0,0,0,0-.15c0-.06.11,0,.16,0,.63,0,1.25,0,1.88,0a.39.39,0,0,1,.32.14,9.25,9.25,0,0,0,4.42,2.71c.15,0,.18,0,.18-.14v-5c0-.15,0-.2-.19-.22a12.06,12.06,0,0,1-3.67-1,5.84,5.84,0,0,1-2.32-1.8,4.07,4.07,0,0,1-.78-2.28A2.09,2.09,0,0,0,11.94,14.56Z"/><path class="cls-3" d="M21.56,32.28h-2c-.05,0-.1,0-.1-.08s0-.24,0-.37.1-.07.16-.07H21c.15,0,.19,0,.19-.19,0-.81,0-1.62,0-2.43,0-.07,0-.14,0-.2l0,0a.29.29,0,0,1,0,.09c0,.81,0,1.63,0,2.45,0-.84,0-1.67,0-2.5a.08.08,0,0,1,0-.07c.13,0,.28,0,.41,0a8.48,8.48,0,0,0,2.73-.57,5.52,5.52,0,0,0,3.19-3,5.94,5.94,0,0,0,.38-3,4.73,4.73,0,0,0-.63-2c.1,0,.13.07.17.11a4.25,4.25,0,0,1,.89,2.09,1.64,1.64,0,0,1,0,.44,6.11,6.11,0,0,0,0,.74,3.37,3.37,0,0,1-.15.83.14.14,0,0,0,0,.15,5,5,0,0,1-.95,2A6.55,6.55,0,0,1,24,29a9.53,9.53,0,0,1-2.12.38c-.06,0-.12,0-.16,0s0,.13,0,.2v2.45C21.65,32.16,21.67,32.26,21.56,32.28Z"/><path class="cls-3" d="M15.46,29a.44.44,0,0,0-.2,0H12.65c-.1,0-.19,0-.17-.1a.11.11,0,0,1,0,.11.94.94,0,0,1,0-.44c0-.1.11-.06.17-.06h2.2c.18,0,.23-.06.22-.23s0-.65,0-1c0,0-.06-.15.07-.09a3.45,3.45,0,0,0,0,.72c0,.15,0,.31,0,.46v-1c0-.05,0-.12,0-.15a13.7,13.7,0,0,0,2.09,1c.36.13.73.24,1.09.36V29c0,.06,0,.12-.07.15a9.63,9.63,0,0,1-2.5-.92l-.24-.12"/><path class="cls-3" d="M25.26,17c-.15,0-.2,0-.19-.17,0-.35,0-.35.35-.35h2c.15,0,.19,0,.19-.19V11.59c0-.06,0-.14,0-.2s0,.06,0,.09v0s0-.1.07-.11c.37,0,.37,0,.37.34v5.1c0,.07,0,.14,0,.19a.44.44,0,0,1,0-.2V11.76a.3.3,0,0,0,0-.13s0,0,0,0,0,0,0,0c0,1.35,0,2.7,0,4.06,0,.37,0,.74,0,1.12,0,.13,0,.18-.18.17H25.4A.22.22,0,0,0,25.26,17Z"/><path class="cls-3" d="M18.26,21.6A10.86,10.86,0,0,1,13.39,20a3,3,0,0,1-1.28-1.73s0,0,0,0,0,0,.06,0a6.1,6.1,0,0,0,3.52,2.33,14.65,14.65,0,0,0,2.35.49c.28,0,.28,0,.28.31a.43.43,0,0,1,0,.25c0-.13,0-.28,0-.41s0,0,0,0h0A1,1,0,0,1,18.26,21.6Z"/><path class="cls-3" d="M21.37,14a3.37,3.37,0,0,1,1.19.78,7.08,7.08,0,0,0-.78-.25s-.09,0-.12,0a.65.65,0,0,0,0,.24v2.06a.5.5,0,0,0,0,.21c0,.07,0,.09-.07.07l-.23-.07s-.09-.08-.08-.15c0-.89,0-1.78,0-2.67a.33.33,0,0,1,0-.17A.1.1,0,0,1,21.37,14Z"/><path class="cls-3" d="M21.66,8.77v.15q0,.62,0,1.23v0c0,.06,0,.15-.07.19a.9.9,0,0,1-.27-.11.37.37,0,0,1-.07-.25c0-.36,0-.73,0-1.1,0-.07,0-.19.06-.21S21.57,8.64,21.66,8.77Z"/><path class="cls-3" d="M21.34,14c-.12,0-.08.13-.08.2v2.59c0,.08,0,.16,0,.24s0-.09,0-.14V14.12S21.17,13.92,21.34,14Z"/><path class="cls-3" d="M28.32,24.69c-.08,0-.08-.09-.14-.11s0-.09,0-.09c.18,0,.06-.12.09-.17s-.05-.08,0-.1.06,0,.09,0,0,0,0-.08a7.69,7.69,0,0,0,.07-1.07.15.15,0,0,1,0-.12,4.41,4.41,0,0,1,0,1.09c0,.06,0,.14,0,.2Z"/><path class="cls-3" d="M21.66,8.69h-.41A.64.64,0,0,1,21.66,8.69Z"/><path class="cls-3" d="M28.4,24.26c0-.07,0-.14,0-.2A.34.34,0,0,1,28.4,24.26Z"/><path class="cls-4" d="M18.89,17.27c0,.16,0,.22-.19.17A8.72,8.72,0,0,1,16,16.52a2.22,2.22,0,0,1-1-1,1.85,1.85,0,0,1,.66-2.28,3.87,3.87,0,0,1,2.19-.79c.27,0,.54,0,.81,0s.21,0,.2.21c0,.79,0,1.57,0,2.36"/><path class="cls-4" d="M20.69,20.5a7.5,7.5,0,0,1,2.71,1,2.33,2.33,0,0,1,1,1.17,1.88,1.88,0,0,1-.48,2.11,3.75,3.75,0,0,1-2.44,1,6.77,6.77,0,0,1-.78,0c-.11,0-.1-.11-.14-.18a.32.32,0,0,1,0-.14V20.83a.28.28,0,0,1,.11-.28v4.82c0-1.55,0-3.09,0-4.63C20.67,20.66,20.58,20.57,20.69,20.5Z"/><path class="cls-3" d="M15.65,14.58a.8.8,0,0,1,.28-.6,2,2,0,0,1,.77-.41,5,5,0,0,1,1.48-.24c.12,0,.15,0,.15.14,0,.38,0,.37-.36.39A4,4,0,0,0,15.65,14.58Z"/><path class="cls-3" d="M21.26,25c-.05,0,0-.1,0-.15v-3c0-.16,0-.2.19-.15a4.48,4.48,0,0,1,1.64.69,1.56,1.56,0,0,1,.52.7c-.28-.16-.53-.31-.79-.43a6,6,0,0,0-1-.34.11.11,0,0,0-.12,0,.46.46,0,0,0,0,.2c0,.72,0,1.44,0,2.16,0,.14,0,.22-.16.26a.22.22,0,0,1-.16,0c-.08,0-.06-.1,0-.17a3.92,3.92,0,0,1,0-.59c0-.74,0-1.47,0-2.2,0,.91,0,1.82,0,2.73,0,0,0,0,0,.06S21.29,24.9,21.26,25Z"/></svg>